# xmcd
#
# Track frame offsets: 
#        150
#        26175
#        52950
#        83325
#        116175
#        137175
#        159075
#        188100
#        214950
#        233550
#        251700
#
# Disc length: 3524 seconds
#
# Revision: 1
# Processed by: cddbd v1.5.2PL0 Copyright (c) Steve Scherf et al.
# Submitted via: ExactAudioCopy v0.95a5
#
DISCID=8f0dc20b
DTITLE=Maria João Pires - Chopin Complete Edition: Disc 08 - Nocturnes
DTITLE=II
DYEAR=1996
DGENRE=Classical
TTITLE0=Nº 11 In G Minor Op 37 Nº 1: Andante Sostenuto
TTITLE1=Nº 12 In G Major Op 37 Nº 2: Andantino
TTITLE2=Nº 13 In C Minor Op 48 Nº 1: Lento
TTITLE3=Nº 14 In F Sharp Minor Op 48 Nº 2: Andantino
TTITLE4=Nº 15 In F Minor Op 55 Nº 1: Andante
TTITLE5=Nº 16 In E Flat Major Op 55 Nº 2: Lento Sostenuto
TTITLE6=Nº 17 In B Major Op 62 Nº 1: Andante
TTITLE7=Nº 18 In E Major Op 62 Nº 2: Lento
TTITLE8=Nº 19 In E Minor Op Post 72 Nº 1: Andante
TTITLE9=Nº 20 In C Sharp Minor Op Post - Lento Con Gran Espressione
TTITLE10=Nº 21 In C Minor Op Post
EXTD=
EXTT0=
EXTT1=
EXTT2=
EXTT3=
EXTT4=
EXTT5=
EXTT6=
EXTT7=
EXTT8=
EXTT9=
EXTT10=
PLAYORDER=
